<svg width="36" height="36" viewBox="0 0 36 36" fill="none" xmlns="http://www.w3.org/2000/svg">
<g filter="url(#filter0_d_304_109007)">
<rect width="32" height="32" transform="translate(2 1)" fill="white"/>
<path d="M16.6567 32.9695L27.0175 30.1453L20.7181 28.48L16.6567 32.9695Z" fill="#5F7C88"/>
<path d="M12.8027 32.2192L16.6568 32.9695L20.7181 28.48L12.8027 32.2192Z" fill="#5F7C88"/>
<path d="M22.2244 1.21327L13.9004 1.03027L17.1995 4.7817L22.2244 1.21327Z" fill="#648391"/>
<path d="M2.33835 12.0103L2.02734 20.4708L6.19238 13.7365L2.33835 12.0103Z" fill="#5B7783"/>
<path d="M6.19238 13.7363L2.02734 20.4706L6.92415 21.9041L6.19238 13.7363Z" fill="#5F7C88"/>
<path d="M2.02734 20.4707L4.32634 25.7776L6.92415 21.9042L2.02734 20.4707Z" fill="#506974"/>
<path d="M15.5469 21.9041L26.4564 25.1309L23.072 14.145L15.5469 21.9041Z" fill="#BDCFD1"/>
<path d="M11.6015 16.1646L11.0283 26.76L15.547 21.9045L11.6015 16.1646Z" fill="#BDCDD1"/>
<path d="M26.4567 25.1309L29.8351 18.1648L23.0723 14.145L26.4567 25.1309Z" fill="#D7E2E4"/>
<path d="M11.0283 26.7598L26.4566 25.1311L15.547 21.9043L11.0283 26.7598Z" fill="#BDCDD1"/>
<path d="M25.1639 7.24617L22.2246 1.21338L17.1997 4.78181L25.1639 7.24617Z" fill="#7A939D"/>
<path d="M6.92432 21.9045L11.0284 26.76L11.6016 16.1646L6.92432 21.9045Z" fill="#BDCFD1"/>
<path d="M17.1997 4.7817L13.9006 1.03027L9.93066 7.75844L17.1997 4.7817Z" fill="#5F7C88"/>
<path d="M29.8351 18.1773L29.5302 14.1697H23.0723V14.1636L29.8351 18.1773Z" fill="#BDCDD1"/>
<path d="M23.0722 14.1573V14.1695L25.1639 7.2583L17.1997 4.79395L23.0722 14.1573Z" fill="#BDCDD1"/>
<path d="M20.7183 28.4802L26.4566 25.1313L11.0283 26.76L20.7183 28.4802Z" fill="#C9D6D9"/>
<path d="M30.5913 6.84357L22.2246 1.21338L25.1639 7.24617L30.5913 6.84357Z" fill="#5D7886"/>
<path d="M29.5359 14.1453L30.5909 6.84375L25.1636 7.24635L29.5359 14.1453Z" fill="#5F7C88"/>
<path d="M17.1997 4.78174L9.93066 7.75848L11.6016 16.1641L17.1997 4.78174Z" fill="#D6E1E3"/>
<path d="M9.93054 7.75879L6.19238 13.7367L11.6014 16.1644L9.93054 7.75879Z" fill="#BDCDD1"/>
<path d="M6.19238 13.7363L6.92416 21.9041L11.6014 16.1641L6.19238 13.7363Z" fill="#D7E2E4"/>
<path d="M23.0722 14.1451L17.1997 4.78174L11.6016 16.1641L23.0722 14.1451Z" fill="#BDCFD1"/>
<path d="M15.5471 21.9041L23.0722 14.145L11.6016 16.1641L15.5471 21.9041Z" fill="#D7E2E4"/>
<path d="M27.0176 30.1455L30.5911 26.7722L26.4565 25.1313L27.0176 30.1455Z" fill="#5F7C88"/>
<path d="M20.7183 28.4802L27.0176 30.1455L26.4566 25.1313L20.7183 28.4802Z" fill="#506974"/>
<path d="M26.4565 25.1311L30.5911 26.772L29.8349 18.165L26.4565 25.1311Z" fill="#506974"/>
<path d="M13.9007 1.03027L9.4917 2.90294L9.93077 7.75844L13.9007 1.03027Z" fill="#829CA7"/>
<path d="M29.5361 14.1453L33.9695 15.652L30.5911 6.84375L29.5361 14.1453Z" fill="#5D7886"/>
<path d="M30.5911 26.7719L33.9695 15.6519L29.835 18.165L30.5911 26.7719Z" fill="#5B7783"/>
<path d="M29.5359 14.145L29.5298 14.1694L29.8347 18.177L33.9692 15.6578L29.5359 14.145Z" fill="#78919B"/>
<path d="M25.1639 7.2583L23.0723 14.1695H29.5302L29.5363 14.1451L25.1639 7.2583Z" fill="#BDCFD1"/>
<path d="M11.0283 26.7598L12.8029 32.2192L20.7183 28.4799L11.0283 26.7598Z" fill="#506974"/>
<path d="M4.32617 25.7778L12.8026 32.2193L11.028 26.7599L4.32617 25.7778Z" fill="#5F7C88"/>
<path d="M4.37516 7.77099L2.33838 12.0104L9.93057 7.75879L4.37516 7.77099Z" fill="#5B7783"/>
<path d="M9.49134 2.90332L4.375 7.77103L9.93041 7.75883L9.49134 2.90332Z" fill="#5F7C88"/>
<path d="M6.19241 13.7367L9.93057 7.75879L2.33838 12.0104L6.19241 13.7367Z" fill="#829CA7"/>
<path d="M6.92398 21.9043L4.32617 25.7777L11.028 26.7598L6.92398 21.9043Z" fill="#5F7C88"/>
<path fill-rule="evenodd" clip-rule="evenodd" d="M34 15.6641C34 15.6682 33.998 15.6723 33.9939 15.6763C33.9898 15.6763 33.9878 15.6763 33.9878 15.6763L29.8655 18.1773L30.6216 26.772C30.6216 26.772 30.6196 26.774 30.6155 26.7781C30.6155 26.7781 30.6155 26.7802 30.6155 26.7842C30.6155 26.7883 30.6135 26.7924 30.6094 26.7964C30.6054 26.7964 30.6033 26.7964 30.6033 26.7964C30.5993 26.8005 30.5952 26.8025 30.5911 26.8025C30.5871 26.8025 30.583 26.8025 30.5789 26.8025L26.4932 25.18L27.0481 30.1392C27.0481 30.1432 27.0481 30.1453 27.0481 30.1453C27.0481 30.1493 27.0481 30.1514 27.0481 30.1514C27.042 30.1575 27.0359 30.1636 27.0359 30.1636C27.0359 30.1697 27.0298 30.1697 27.0298 30.1697C27.0237 30.1697 27.0115 30.1697 27.0115 30.1758C27.0054 30.1758 26.9932 30.1697 26.9932 30.1697V30.1636L20.7243 28.5105L16.6813 32.9878C16.6731 32.9959 16.665 33 16.6569 33C16.6488 33 16.6427 32.998 16.6386 32.9939C16.6264 32.9817 16.6264 32.9634 16.6386 32.9512L20.5902 28.5715L12.8151 32.2436C12.8151 32.2436 12.813 32.2456 12.809 32.2497C12.8049 32.2497 12.8029 32.2497 12.8029 32.2497C12.7947 32.2497 12.7886 32.2477 12.7846 32.2436C12.7846 32.2436 12.7825 32.2416 12.7785 32.2375C12.7785 32.2375 12.7764 32.2355 12.7724 32.2314C12.7724 32.2314 12.7724 32.2294 12.7724 32.2253L11.01 26.7842L4.32034 25.8082C4.31628 25.8082 4.31221 25.8062 4.30815 25.8021C4.30408 25.8021 4.30205 25.8001 4.30205 25.796C4.29798 25.796 4.29595 25.794 4.29595 25.7899C4.29595 25.7899 4.29595 25.7879 4.29595 25.7838C4.29595 25.7838 4.29595 25.7818 4.29595 25.7777C4.29595 25.7737 4.29595 25.7716 4.29595 25.7716C4.29595 25.7676 4.29798 25.7655 4.30205 25.7655C4.30205 25.7655 4.30205 25.7635 4.30205 25.7594L6.87546 21.9226L2.02134 20.5013C2.02134 20.5013 2.01931 20.4993 2.01525 20.4952C2.01118 20.4952 2.00915 20.4932 2.00915 20.4891C2.00508 20.4891 2.00305 20.4891 2.00305 20.4891C2.00305 20.4851 2.00305 20.483 2.00305 20.483C2.00305 20.479 2.00305 20.4769 2.00305 20.4769C1.99898 20.4729 1.99898 20.4708 2.00305 20.4708C2.00305 20.4668 2.00305 20.4647 2.00305 20.4647C2.00305 20.4607 2.00305 20.4586 2.00305 20.4586C2.00305 20.4586 2.00305 20.4566 2.00305 20.4525L6.14979 13.7488L2.32625 12.0347C2.32218 12.0306 2.31812 12.0266 2.31405 12.0225C2.31405 12.0184 2.31405 12.0164 2.31405 12.0164C2.31405 12.0123 2.31202 12.0103 2.30796 12.0103C2.30796 12.0062 2.30999 12.0042 2.31405 12.0042C2.31405 12.0001 2.31405 11.9981 2.31405 11.9981C2.31405 11.9981 2.31405 11.9961 2.31405 11.992C2.31405 11.992 2.31609 11.99 2.32015 11.9859C2.32015 11.9859 2.32218 11.9839 2.32625 11.9798L9.80867 7.78917L4.37522 7.80137C4.35693 7.80137 4.34473 7.78307 4.34473 7.77087C4.34473 7.75257 4.35693 7.74037 4.37522 7.74037L9.89404 7.72817L9.46108 2.90926C9.46108 2.89096 9.47327 2.87876 9.49157 2.87266C9.50986 2.87266 9.52206 2.88486 9.52206 2.90316L9.94893 7.66107L13.8761 1.0122C13.8761 1.00813 13.8782 1.0061 13.8822 1.0061C13.8822 1.0061 13.8843 1.00407 13.8883 1C13.8883 1 13.8904 1 13.8944 1C13.8944 1 13.8965 1 13.9005 1C13.9046 1 13.9066 1 13.9066 1C13.9107 1 13.9127 1 13.9127 1C13.9168 1.00407 13.9188 1.0061 13.9188 1.0061C13.9188 1.0061 13.9209 1.0061 13.9249 1.0061L17.2057 4.73923L22.2062 1.18909C22.2103 1.18503 22.2123 1.183 22.2123 1.183C22.2123 1.183 22.2143 1.183 22.2184 1.183C22.2184 1.183 22.2204 1.183 22.2245 1.183C22.2245 1.183 22.2265 1.183 22.2306 1.183C22.2306 1.183 22.2326 1.18503 22.2367 1.18909C22.2367 1.18909 22.2387 1.18909 22.2428 1.18909C22.2428 1.18909 22.2428 1.19113 22.2428 1.19519C22.2468 1.19519 22.2489 1.19519 22.2489 1.19519C22.2489 1.19926 22.2489 1.20129 22.2489 1.20129L25.1821 7.21579L30.585 6.81319C30.5891 6.81319 30.5911 6.81319 30.5911 6.81319C30.5952 6.81319 30.5972 6.81319 30.5972 6.81319C30.5972 6.81319 30.5993 6.81523 30.6033 6.81929C30.6033 6.81929 30.6054 6.81929 30.6094 6.81929C30.6094 6.81929 30.6094 6.82132 30.6094 6.82539C30.6094 6.82539 30.6115 6.82742 30.6155 6.83149C30.6155 6.83556 30.6155 6.83759 30.6155 6.83759C30.6196 6.84165 30.6216 6.84369 30.6216 6.84369C30.6216 6.84775 30.6216 6.84979 30.6216 6.84979L29.5728 14.127L33.9817 15.6214C33.9817 15.6255 33.9837 15.6275 33.9878 15.6275C33.9878 15.6275 33.9898 15.6275 33.9939 15.6275C33.9939 15.6316 33.9939 15.6336 33.9939 15.6336C33.998 15.6336 34 15.6357 34 15.6397C34 15.6397 34 15.6418 34 15.6458C34 15.6458 34 15.6479 34 15.6519C34 15.6519 34 15.654 34 15.658C34 15.6621 34 15.6641 34 15.6641ZM27.0115 30.1697L27.0176 30.1636H26.9932L27.0115 30.1697ZM20.6207 28.4922L11.0771 26.7964L12.8212 32.1765L20.6207 28.4922ZM10.0038 7.69767L17.1508 4.77583L13.9066 1.0854L10.0038 7.69767ZM17.2728 4.77583L25.1089 7.19748L22.2184 1.26229L17.2728 4.77583ZM26.3224 25.18L11.2539 26.772L20.7121 28.4495L26.3224 25.18ZM15.5592 21.8555L22.9929 14.194L11.6564 16.1887L15.5592 21.8555ZM23.0294 14.127L17.2118 4.84903L11.6625 16.1277L23.0294 14.127ZM11.632 16.2558L11.071 26.6744L15.5165 21.8982L11.632 16.2558ZM11.1137 26.7232L26.3102 25.119L15.5653 21.9409L11.1137 26.7232ZM26.4139 25.0885L23.066 14.2063L15.608 21.886L26.4139 25.0885ZM25.1272 7.27068L17.2728 4.83683L23.066 14.0782L25.1272 7.27068ZM23.1209 14.127H29.4813L25.176 7.33168L23.1209 14.127ZM17.1447 4.84293L9.97332 7.77697L11.6198 16.0728L17.1447 4.84293ZM9.92453 7.83797L6.24735 13.7244L11.571 16.1155L9.92453 7.83797ZM6.24126 13.7854L6.95474 21.825L11.5588 16.1765L6.24126 13.7854ZM6.97913 21.9043L11.0222 26.6805L11.5832 16.2558L6.97913 21.9043ZM26.4749 25.0518L29.8045 18.1773L23.1392 14.2185L26.4749 25.0518ZM29.8106 18.1163L29.5118 14.1819H23.188L29.8106 18.1163ZM29.5362 14.066L30.5667 6.88029L25.2309 7.27678L29.5362 14.066ZM9.85746 7.84407L2.42992 12.0103L6.19857 13.7061L9.85746 7.84407ZM6.19247 13.8342L2.09452 20.4525L6.91205 21.8616L6.19247 13.8342ZM6.94864 21.9531L4.39352 25.7594L10.9734 26.7171L6.94864 21.9531ZM20.8158 28.4678L27.0054 30.1026L26.4566 25.186L20.8158 28.4678ZM26.5176 25.119L30.5728 26.7232L29.8289 18.2749L26.5176 25.119ZM33.9207 15.6641L29.5849 14.194L29.8777 18.1163L33.9207 15.6641Z" fill="white"/>
<path fill-rule="evenodd" clip-rule="evenodd" d="M24.8407 12.9617L24.4504 22.5447C24.4504 23.8378 23.4015 24.9724 22.1087 24.9724H14.1324C12.8396 24.9724 11.7907 23.8439 11.7907 22.5507L11.4004 12.919C11.4004 11.6259 12.4493 10.5889 13.7421 10.5889H22.499C23.7918 10.5889 24.8407 11.6685 24.8407 12.9617ZM14.7422 15.4749H21.6026V11.7417H14.7422V15.4749ZM21.2245 14.2854L21.2062 14.3647C21.2062 14.4745 21.1574 14.5843 21.0964 14.688C21.0355 14.7897 20.9521 14.871 20.8464 14.932C20.7448 14.9971 20.6147 15.0438 20.4561 15.0723C20.2976 15.1007 20.1146 15.115 19.9073 15.115C19.4398 15.115 19.1186 15.0601 18.9438 14.9503C18.769 14.8405 18.6816 14.6961 18.6816 14.5172C18.6816 14.4928 18.6836 14.4623 18.6877 14.4257L19.5536 14.4989C19.578 14.5599 19.6146 14.6026 19.6573 14.627C19.7244 14.6636 19.8158 14.6819 19.9134 14.6819C20.0476 14.6819 20.1573 14.6575 20.2183 14.6026C20.2854 14.5477 20.3464 14.4562 20.3464 14.322V14.0536C20.2854 14.1329 20.139 14.1878 20.0537 14.2244C19.9134 14.2854 19.7366 14.3098 19.578 14.3098C19.265 14.3098 19.0129 14.2061 18.8218 13.9987C18.6877 13.8482 18.6206 13.651 18.6206 13.407C18.6206 13.1264 18.7121 12.9129 18.8828 12.7665C19.0597 12.6201 19.2975 12.5469 19.5841 12.5469C19.7609 12.5469 19.9256 12.5713 20.0415 12.6201C20.1634 12.6689 20.3464 12.7421 20.4012 12.8519V12.675H21.2245V14.2854ZM17.2241 12.9495L18.4559 14.5416H17.2302L16.5899 13.4436L16.1143 13.7791V14.5416H15.0715V11.9613H16.1143V12.8458L17.0778 11.9613H18.4011L17.2241 12.9495ZM21.4135 17.195C21.3526 17.561 21.5843 17.9087 21.9258 17.9697C22.2734 18.0368 22.5966 17.7928 22.6576 17.4268C22.7185 17.0669 22.4868 16.7193 22.1453 16.6522C21.7977 16.5912 21.4745 16.8352 21.4135 17.195ZM20.2915 13.4558C20.2915 13.3257 20.2529 13.224 20.1756 13.1508C20.0943 13.0817 19.9967 13.0471 19.8829 13.0471C19.7691 13.0471 19.6776 13.0797 19.6085 13.1447C19.5394 13.2098 19.5048 13.3155 19.5048 13.4619C19.5048 13.592 19.5414 13.6876 19.6146 13.7486C19.6878 13.8137 19.7813 13.8462 19.8951 13.8462C20.0089 13.8462 20.1024 13.8137 20.1756 13.7486C20.2529 13.6835 20.2915 13.5859 20.2915 13.4558ZM13.5347 17.4268C13.5957 17.7928 13.925 18.0368 14.2665 17.9697C14.6141 17.9087 14.8397 17.561 14.7849 17.195C14.7239 16.8352 14.3946 16.5912 14.0531 16.6522C13.7055 16.7193 13.4738 17.0669 13.5347 17.4268ZM12.9127 18.6712C13.2054 18.5919 13.3823 18.2991 13.3091 18.0246C13.2359 17.744 12.9371 17.5793 12.6383 17.6586C12.3456 17.7379 12.1688 18.0307 12.2419 18.3113C12.3151 18.5858 12.62 18.7505 12.9127 18.6712ZM16.0106 21.0929C15.9069 19.4337 16.4862 17.9209 15.541 18.0185C14.6019 18.1222 12.9066 18.1344 13.0103 19.7936C13.1201 21.4467 14.9861 24.1245 15.9252 24.0208C16.8704 23.9171 16.1143 22.752 16.0106 21.0929ZM15.9679 15.8775C15.5227 15.8897 15.1447 16.3167 15.1264 16.8291C15.1142 17.3353 15.4618 17.7379 15.9069 17.7257C16.3521 17.7135 16.7302 17.2865 16.7485 16.7803C16.7607 16.2679 16.4131 15.8653 15.9679 15.8775ZM18.6938 16.1337H17.7059V24.2587H18.6938V16.1337ZM20.2854 17.7257C20.7366 17.7379 21.0842 17.3353 21.0659 16.8291C21.0477 16.3167 20.6696 15.8897 20.2244 15.8775C19.7792 15.8653 19.4316 16.2679 19.4499 16.7803C19.4682 17.2865 19.8402 17.7135 20.2854 17.7257ZM20.6513 18.0185C19.7061 17.9209 20.2915 19.4337 20.1817 21.0929C20.078 22.752 19.3219 23.9171 20.2671 24.0208C21.2123 24.1245 23.0722 21.4467 23.182 19.7936C23.2857 18.1344 21.5965 18.1222 20.6513 18.0185ZM23.554 17.6586C23.2613 17.5793 22.9564 17.744 22.8832 18.0246C22.81 18.2991 22.9869 18.5919 23.2857 18.6712C23.5784 18.7505 23.8772 18.5858 23.9504 18.3113C24.0235 18.0307 23.8467 17.7379 23.554 17.6586Z" fill="#003B4D"/>
<g style="mix-blend-mode:screen">
<path d="M15.6078 21.8495L23.1573 14.1209L11.6806 16.0973L15.6078 21.8495ZM7.00329 21.8006L11.6806 16.1034L6.2959 13.6878L7.00329 21.8006ZM10.0646 7.67942L11.6745 16.0973L17.236 4.76367L10.0646 7.67942ZM23.1573 14.1209L26.5051 25.0458L29.8713 18.22L23.1573 14.1209Z" fill="#333333"/>
</g>
</g>
<defs>
<filter id="filter0_d_304_109007" x="0" y="0" width="36" height="36" filterUnits="userSpaceOnUse" color-interpolation-filters="sRGB">
<feFlood flood-opacity="0" result="BackgroundImageFix"/>
<feColorMatrix in="SourceAlpha" type="matrix" values="0 0 0 0 0 0 0 0 0 0 0 0 0 0 0 0 0 0 127 0" result="hardAlpha"/>
<feOffset dy="1"/>
<feGaussianBlur stdDeviation="1"/>
<feComposite in2="hardAlpha" operator="out"/>
<feColorMatrix type="matrix" values="0 0 0 0 0.894118 0 0 0 0 0.898039 0 0 0 0 0.905882 0 0 0 0.24 0"/>
<feBlend mode="normal" in2="BackgroundImageFix" result="effect1_dropShadow_304_109007"/>
<feBlend mode="normal" in="SourceGraphic" in2="effect1_dropShadow_304_109007" result="shape"/>
</filter>
</defs>
</svg>
